<?xml version="1.0" encoding="utf-8"?>
<!-- Generator: Adobe Illustrator 19.2.1, SVG Export Plug-In . SVG Version: 6.00 Build 0)  -->
<svg version="1.1" id="Layer_1" xmlns="http://www.w3.org/2000/svg" xmlns:xlink="http://www.w3.org/1999/xlink" x="0px" y="0px"
	 viewBox="0 0 135.4 135.4" style="enable-background:new 0 0 135.4 135.4;" xml:space="preserve">
<style type="text/css">
	.st0{fill:#38B5B5;}
</style>
<g>
	<g>
		<path class="st0" d="M108.9,53.2c-2.2,0-4.5,0-6.6,0c-1,0-2,0-3.1,0l-0.1,0c0-0.8,0-1.6,0-2.5c0-1.3,0-2.7,0.1-4.1
			c0.1-2.3,1.4-3.4,3.8-3.4l1.2,0c1.7,0,3.5,0,5.2,0c0.4,0,0.9,0,1.4-0.4c0.4-0.4,0.5-1,0.5-1.3c0-3.4,0-7.1,0-11.4
			c0-0.4,0-0.9-0.4-1.3c-0.4-0.4-1.1-0.4-1.3-0.4c-1.5,0-3,0-4.5,0c-2.9,0-5.9,0-8.8,0.1c-4.9,0.2-8.7,2.2-11.4,5.8
			c-2.1,2.8-3.2,6.2-3.3,10.1c-0.1,2.9-0.1,5.8,0,8.6c0,0.5,0.4,0.9,0.9,0.9h0c0.5,0,0.9-0.4,0.9-0.9c-0.1-2.8-0.1-5.7,0-8.5
			c0.1-3.5,1.1-6.5,2.9-9.1c2.3-3.2,5.7-4.9,10-5.1c2.9-0.1,5.9-0.1,8.8-0.1c1.5,0,2.9,0,4.4,0c0,4.2,0,7.9,0,11.2
			c-1.7,0-3.5,0-5.2,0l-1.2,0c-3.4,0-5.4,1.9-5.6,5.1c-0.1,1.4-0.1,2.8-0.1,4.2c0,0.9,0,1.7,0,2.6c0,0.5,0.1,1,0.4,1.2
			c0.4,0.4,1,0.4,1.4,0.4l0.1,0c1,0,2,0,3.1,0c2.2,0,4.4,0,6.7,0c0.1,0,0.2,0,0.2,0c0,0,0,0.1,0,0.2c-0.4,3.4-0.7,7-1.1,11.4
			c0,0.1,0,0.1,0,0.2c-0.1,0-0.1,0-0.3,0c-2.6,0-5.1,0-7.7,0c-0.2,0-0.4,0-0.6,0c-0.6,0-1.2,0-1.6,0.4c-0.4,0.4-0.4,0.9-0.4,1.7
			l0,0.4l0,3.2c0,10.5,0,21.4,0,32.1c0,0.3,0,0.5,0,0.6c-0.1,0-0.2,0-0.6,0c-4.5-0.1-9-0.1-13.2,0c-0.3,0-0.4,0-0.5,0
			c0-0.1,0-0.2,0-0.5c0-4.4,0-9,0-13.3l0-4.5c0-0.5-0.4-0.9-0.9-0.9c-0.5,0-0.9,0.4-0.9,0.9l0,4.5c0,4.4,0,8.9,0,13.3
			c0,0.7,0.1,1.4,0.6,1.9c0.5,0.5,1.1,0.5,1.7,0.5c0,0,0.1,0,0.1,0c4.2-0.1,8.7-0.1,13.2,0c0.6,0,1.4,0,1.9-0.6
			c0.5-0.5,0.6-1.2,0.6-1.9c0-10.7,0-21.6,0-32.1l0-3.2l0-0.5c0-0.1,0-0.2,0-0.2c0,0,0.1,0,0.1,0c0.2,0,0.4,0,0.6,0
			c2.6,0,5.1,0,7.7,0c0.5,0,2,0,2.2-1.8c0.4-4.3,0.7-7.9,1.1-11.3c0.1-0.5,0.1-1.2-0.4-1.7C110.1,53.3,109.4,53.2,108.9,53.2z
			 M93.2,70.6V56.4c0-0.5-0.4-0.9-0.9-0.9c-0.5,0-0.9,0.4-0.9,0.9v14.1c0,3.3-2.6,5.9-5.9,5.9s-5.9-2.6-5.9-5.9V40.5
			c0-3.9-2.9-7.1-6.6-7.6c-0.1-0.1-0.2-0.1-0.4-0.1H32c-4.3,0-7.7,3.5-7.7,7.7v61.1c0,0.5,0.4,0.9,0.9,0.9l28.6,0.3h0
			c0.1,0,0.2,0,0.4-0.1c0.1,0,0.2-0.1,0.3-0.2c0,0,0,0,0,0l11.3-11.3c0.2-0.2,0.3-0.4,0.3-0.6V40.5c0-3.3,2.6-5.9,5.9-5.9
			c3.3,0,5.9,2.6,5.9,5.9v30.1c0,2.4,1.1,4.5,2.7,5.9h-9.8c-0.5,0-0.9,0.4-0.9,0.9c0,0.5,0.4,0.9,0.9,0.9h14.7
			C89.7,78.3,93.2,74.8,93.2,70.6z M54.7,99.7v-8.8h8.8L54.7,99.7z M64.1,40.5v48.6H53.8c-0.5,0-0.9,0.4-0.9,0.9v11l-26.7-0.3V40.5
			c0-3.3,2.6-5.9,5.9-5.9h34.9C65.2,36,64.1,38.1,64.1,40.5z M32.1,51.7c-0.5,0-0.9,0.4-0.9,0.9V90c0,0.1,0,0.3,0.1,0.4l2.8,5.9
			c0.1,0.3,0.4,0.5,0.8,0.5c0,0,0,0,0,0c0.3,0,0.6-0.2,0.8-0.4l3.7-5.9c0.1-0.1,0.1-0.3,0.1-0.5V52.6c0-0.5-0.4-0.9-0.9-0.9H32.1z
			 M37.7,89.7L35.1,94l-2-4.2V59.4h4.7V89.7z M37.7,57.6H33v-4.1h4.7V57.6z M31.2,42.9c0,0.5,0.4,0.9,0.9,0.9c0.5,0,0.9-0.4,0.9-0.9
			c0-0.5-0.4-0.9-0.9-0.9C31.6,42,31.2,42.4,31.2,42.9z M37.7,43.8c0.5,0,0.9-0.4,0.9-0.9c0-0.5-0.4-0.9-0.9-0.9
			c-0.5,0-0.9,0.4-0.9,0.9C36.8,43.4,37.2,43.8,37.7,43.8z M92.3,53.5c0.5,0,0.9-0.4,0.9-0.9c0-0.5-0.4-0.9-0.9-0.9
			c-0.5,0-0.9,0.4-0.9,0.9C91.4,53.1,91.8,53.5,92.3,53.5z M92.3,50c0.5,0,0.9-0.4,0.9-0.9c0-0.5-0.4-0.9-0.9-0.9
			c-0.5,0-0.9,0.4-0.9,0.9C91.4,49.5,91.8,50,92.3,50z M82.2,83.7c0.5,0,0.9-0.4,0.9-0.9c0-0.5-0.4-0.9-0.9-0.9
			c-0.5,0-0.9,0.4-0.9,0.9C81.3,83.3,81.7,83.7,82.2,83.7z M43.3,43.8c0.5,0,0.9-0.4,0.9-0.9c0-0.5-0.4-0.9-0.9-0.9
			c-0.5,0-0.9,0.4-0.9,0.9C42.4,43.4,42.8,43.8,43.3,43.8z"/>
	</g>
</g>
</svg>
