<?xml version="1.0" encoding="utf-8"?>
<!-- Generator: Adobe Illustrator 17.0.0, SVG Export Plug-In . SVG Version: 6.00 Build 0)  -->
<!DOCTYPE svg PUBLIC "-//W3C//DTD SVG 1.1//EN" "http://www.w3.org/Graphics/SVG/1.1/DTD/svg11.dtd">
<svg version="1.1" id="Laag_1" xmlns="http://www.w3.org/2000/svg" xmlns:xlink="http://www.w3.org/1999/xlink" x="0px" y="0px"
	 width="50px" height="80px" viewBox="593 960 50 80" enable-background="new 593 960 50 80" xml:space="preserve">
<title>bts</title>
<path id="Laag_2" fill="#35BAEB" d="M610.511,1010.139l-17.23-17.23v20.708h15.88
	C609.347,1012.375,609.806,1011.187,610.511,1010.139z M609.161,1017.015h-15.88c0.367,5.393,2.479,10.523,6.017,14.614
	l11.213-11.338C609.798,1019.324,609.335,1018.199,609.161,1017.015L609.161,1017.015z M634.206,996.592
	c-4.047-3.603-9.197-5.723-14.61-6.021v15.864c1.217,0.198,2.374,0.649,3.398,1.334L634.206,996.592z M625.613,1020.126
	l11.213,11.213c3.474-4.034,5.542-9.093,5.893-14.409h-15.961C626.569,1018.054,626.182,1019.135,625.613,1020.126L625.613,1020.126
	z M626.762,1013.621h15.88c-0.367-5.393-2.479-10.523-6.017-14.614l-11.217,11.253
	C626.113,1011.259,626.577,1012.412,626.762,1013.621L626.762,1013.621z M601.693,1033.983c4.051,3.603,9.201,5.723,14.614,6.017
	v-15.9c-1.217-0.197-2.374-0.649-3.398-1.334L601.693,1033.983L601.693,1033.983z M619.596,1024.096v15.88
	c5.413-0.363,10.552-2.507,14.614-6.102l-11.136-11.136C622.018,1023.419,620.837,1023.878,619.596,1024.096z M593.281,987.774
	c4.256,4.256,17.601,17.722,19.85,19.93c0.959-0.592,2.011-1.024,3.112-1.27v-25.928L593.322,960
	C593.281,960,593.281,987.016,593.281,987.774z"/>
</svg>
