<?xml version="1.0" encoding="utf-8"?>
<!-- Generator: Adobe Illustrator 17.0.0, SVG Export Plug-In . SVG Version: 6.00 Build 0)  -->
<!DOCTYPE svg PUBLIC "-//W3C//DTD SVG 1.1//EN" "http://www.w3.org/Graphics/SVG/1.1/DTD/svg11.dtd">
<svg version="1.1" id="Слой_1" xmlns="http://www.w3.org/2000/svg" xmlns:xlink="http://www.w3.org/1999/xlink" x="0px" y="0px"
	 width="80px" height="80px" viewBox="1210 1210 80 80" enable-background="new 1210 1210 80 80" xml:space="preserve">
<path fill="#F7931A" d="M1288.799,1259.677c-5.343,21.429-27.047,34.469-48.479,29.126c-21.421-5.343-34.462-27.047-29.119-48.475
	c5.34-21.431,27.044-34.474,48.469-29.131c21.43,5.342,34.47,27.05,29.127,48.48H1288.799z"/>
<path fill="#FFFFFF" d="M1269.034,1245.036c0.795-5.323-3.257-8.184-8.799-10.092l1.797-7.21l-4.39-1.094l-1.75,7.02
	c-1.152-0.287-2.337-0.559-3.515-0.828l1.762-7.066l-4.386-1.094l-1.799,7.208c-0.955-0.218-1.893-0.432-2.802-0.659l0.005-0.022
	l-6.052-1.511l-1.167,4.688c0,0,3.256,0.746,3.188,0.792c1.777,0.444,2.1,1.62,2.045,2.552l-2.047,8.214
	c0.123,0.031,0.281,0.076,0.456,0.146l-0.463-0.115l-2.871,11.506c-0.218,0.54-0.769,1.35-2.011,1.042
	c0.044,0.064-3.19-0.796-3.19-0.796l-2.179,5.025l5.713,1.424c1.063,0.266,2.104,0.545,3.127,0.807l-1.816,7.294l4.384,1.094
	l1.8-7.215c1.196,0.325,2.359,0.625,3.496,0.908l-1.792,7.181l4.389,1.094l1.816-7.279c7.484,1.416,13.112,0.845,15.479-5.922
	c1.909-5.45-0.094-8.594-4.031-10.645c2.867-0.664,5.027-2.55,5.604-6.446H1269.034z M1259.006,1259.097
	c-1.358,5.45-10.532,2.505-13.509,1.765l2.41-9.661c2.975,0.743,12.514,2.213,11.1,7.896H1259.006z M1260.362,1244.957
	c-1.237,4.958-8.875,2.439-11.354,1.821l2.185-8.763C1253.672,1238.633,1261.652,1239.786,1260.362,1244.957z"/>
</svg>
