<?xml version="1.0" encoding="utf-8"?>
<!-- Generator: Adobe Illustrator 17.0.0, SVG Export Plug-In . SVG Version: 6.00 Build 0)  -->
<!DOCTYPE svg PUBLIC "-//W3C//DTD SVG 1.1//EN" "http://www.w3.org/Graphics/SVG/1.1/DTD/svg11.dtd">
<svg version="1.1" id="Слой_1" xmlns="http://www.w3.org/2000/svg" xmlns:xlink="http://www.w3.org/1999/xlink" x="0px" y="0px"
	 width="80px" height="80px" viewBox="1209 1210 80 80" enable-background="new 1209 1210 80 80" xml:space="preserve">
<g>
	<defs>
		<rect id="SVGID_1_" x="1209" y="1210" width="80" height="80"/>
	</defs>
	<clipPath id="SVGID_2_">
		<use xlink:href="#SVGID_1_"  overflow="visible"/>
	</clipPath>
	<path clip-path="url(#SVGID_2_)" d="M1249.004,1290.135c-5.401,0-10.637-1.059-15.569-3.143c-4.767-2.015-9.039-4.897-12.712-8.571
		s-6.556-7.954-8.571-12.713c-2.093-4.941-3.152-10.177-3.152-15.578c0-5.401,1.059-10.637,3.143-15.569
		c2.015-4.767,4.897-9.039,8.571-12.713s7.954-6.556,12.712-8.57c4.932-2.084,10.177-3.143,15.569-3.143s10.646,1.051,15.578,3.135
		c4.767,2.015,9.039,4.897,12.712,8.57c3.673,3.673,6.556,7.954,8.571,12.713c2.084,4.932,3.143,10.177,3.143,15.569
		c0,5.401-1.059,10.637-3.143,15.569c-2.015,4.767-4.897,9.039-8.571,12.713c-3.673,3.673-7.954,6.556-12.712,8.57
		C1259.642,1289.076,1254.406,1290.135,1249.004,1290.135z"/>
	<linearGradient id="SVGID_3_" gradientUnits="userSpaceOnUse" x1="1217.8918" y1="1250.1312" x2="1280.1169" y2="1250.1312">
		<stop  offset="0" style="stop-color:#D6912B"/>
		<stop  offset="1" style="stop-color:#F6C450"/>
	</linearGradient>
	<path clip-path="url(#SVGID_2_)" fill="url(#SVGID_3_)" d="M1249.004,1219.019c-8.31,0-16.125,3.239-22.004,9.109
		c-5.879,5.879-9.109,13.694-9.109,22.004c0,8.31,3.239,16.125,9.109,22.004c5.879,5.87,13.694,9.109,22.004,9.109
		c8.31,0,16.125-3.239,22.004-9.109c5.87-5.879,9.109-13.694,9.109-22.004c0-8.31-3.239-16.125-9.109-22.004
		C1265.13,1222.258,1257.314,1219.019,1249.004,1219.019L1249.004,1219.019z"/>
	<path clip-path="url(#SVGID_2_)" d="M1246.599,1260.091h17.332v8.709h-10.672c0.174,2.492,0.269,4.802,0.443,7.285h-8.979v-7.198
		h-10.672c0-2.848-0.356-5.688,0.174-8.354c0.269-1.424,1.867-2.666,2.848-3.907c3.378-4.003,6.756-7.911,10.22-11.914
		c1.337-1.511,2.666-2.935,4.177-4.62h-16.62v-8.709h9.864v-7.285h8.623v7.112h10.759c0,2.935,0.356,5.774-0.174,8.449
		c-0.269,1.424-1.867,2.666-2.935,3.907c-3.378,4.003-6.756,7.911-10.22,11.914
		C1249.447,1257.069,1248.119,1258.485,1246.599,1260.091L1246.599,1260.091z"/>
</g>
</svg>
