<!-- Generated by IcoMoon.io -->
<svg version="1.1" xmlns="http://www.w3.org/2000/svg" width="48" height="48" viewBox="0 0 48 48">
<title>user</title>
<path d="M41.689 34.59c-2.1-2.74-4.64-4.52-8.279-5.529l-3.41 11.939c0 1.1-0.9 2-2 2s-2-0.9-2-2v-9.5c0-1.38-1.12-2.5-2.5-2.5s-2.5 1.12-2.5 2.5v9.5c0 1.1-0.9 2-2 2s-2-0.9-2-2l-3.41-11.939c-3.64 1.020-6.18 2.789-8.28 5.529-0.83 1.080-1.28 3.25-1.31 4.41v5c0 2.21 1.79 4 4 4h31c2.21 0 4-1.79 4-4v-5c-0.030-1.16-0.48-3.33-1.311-4.41zM23.5 25c6.74 0 10.5-8.58 10.5-14.42s-4.7-10.58-10.5-10.58-10.5 4.74-10.5 10.58 3.64 14.42 10.5 14.42z"></path>
</svg>
